<svg xmlns="http://www.w3.org/2000/svg" viewBox="0 0 880 460" width="880" height="460" font-family="'Noto Sans KR','Malgun Gothic','AppleGothic',sans-serif">
<defs>
<clipPath id="clip-c3"><rect x="0" y="0" width="880" height="460" rx="14"/></clipPath>
</defs>

<text x="40" y="46" font-size="11.5" font-weight="700" fill="#1d4ed8" letter-spacing="1.6">6.3 피처 블록 집계(3차)</text>
<text x="40" y="72" font-size="18" font-weight="800" fill="#14335c">9개 블록 SHAP 기여도 — 텍스트 두 블록이 67.7%</text>
<text x="40" y="98" font-size="11.5" fill="#64748b">154개뿐인 범주형 열이 소수 강신호를, 150,000개 TF-IDF 열이 다수 약신호의 총합을 만든다.</text>
<text x="40" y="120" font-size="11" font-weight="700" fill="#14335c">누적 비중(100%)</text>
<rect x="40" y="132" width="800" height="46" rx="4" fill="#f8fafc"/>
<rect x="40.0" y="132" width="329.8" height="46" fill="#14335c"/>
<rect x="369.8" y="132" width="211.5" height="46" fill="#1d4ed8"/>
<rect x="581.4" y="132" width="55.6" height="46" fill="#3b6fe0"/>
<rect x="637.0" y="132" width="51.6" height="46" fill="#0f766e"/>
<rect x="688.6" y="132" width="51.2" height="46" fill="#5eb8ad"/>
<rect x="739.8" y="132" width="46.9" height="46" fill="#93b8f0"/>
<rect x="786.6" y="132" width="28.3" height="46" fill="#c3d8f7"/>
<rect x="815.0" y="132" width="22.6" height="46" fill="#64748b"/>
<rect x="837.5" y="132" width="2.5" height="46" fill="#94a3b8"/>
<rect x="40" y="199" width="14" height="14" rx="3" fill="#14335c"/>
<text x="62" y="210" font-size="10.5" fill="#1a1a1a">상세설명 TF-IDF</text>
<text x="260" y="210" font-size="10.5" font-weight="700" fill="#14335c" text-anchor="end">41.23%</text>
<rect x="310" y="199" width="14" height="14" rx="3" fill="#1d4ed8"/>
<text x="332" y="210" font-size="10.5" fill="#1a1a1a">상품명 TF-IDF</text>
<text x="530" y="210" font-size="10.5" font-weight="700" fill="#14335c" text-anchor="end">26.44%</text>
<rect x="580" y="199" width="14" height="14" rx="3" fill="#3b6fe0"/>
<text x="602" y="210" font-size="10.5" fill="#1a1a1a">소분류</text>
<text x="800" y="210" font-size="10.5" font-weight="700" fill="#14335c" text-anchor="end">6.95%</text>
<rect x="40" y="229" width="14" height="14" rx="3" fill="#0f766e"/>
<text x="62" y="240" font-size="10.5" fill="#1a1a1a">브랜드</text>
<text x="260" y="240" font-size="10.5" font-weight="700" fill="#14335c" text-anchor="end">6.45%</text>
<rect x="310" y="229" width="14" height="14" rx="3" fill="#5eb8ad"/>
<text x="332" y="240" font-size="10.5" fill="#1a1a1a">상품 상태</text>
<text x="530" y="240" font-size="10.5" font-weight="700" fill="#14335c" text-anchor="end">6.40%</text>
<rect x="580" y="229" width="14" height="14" rx="3" fill="#93b8f0"/>
<text x="602" y="240" font-size="10.5" fill="#1a1a1a">중분류</text>
<text x="800" y="240" font-size="10.5" font-weight="700" fill="#14335c" text-anchor="end">5.86%</text>
<rect x="40" y="259" width="14" height="14" rx="3" fill="#c3d8f7"/>
<text x="62" y="270" font-size="10.5" fill="#1a1a1a">대분류</text>
<text x="260" y="270" font-size="10.5" font-weight="700" fill="#14335c" text-anchor="end">3.54%</text>
<rect x="310" y="259" width="14" height="14" rx="3" fill="#64748b"/>
<text x="332" y="270" font-size="10.5" fill="#1a1a1a">배송비</text>
<text x="530" y="270" font-size="10.5" font-weight="700" fill="#14335c" text-anchor="end">2.82%</text>
<rect x="580" y="259" width="14" height="14" rx="3" fill="#94a3b8"/>
<text x="602" y="270" font-size="10.5" fill="#1a1a1a">설명 유무</text>
<text x="800" y="270" font-size="10.5" font-weight="700" fill="#14335c" text-anchor="end">0.31%</text>
<line x1="40" y1="426" x2="840" y2="426" stroke="#dbe2ec" stroke-width="1"/>
<text x="40" y="440" font-size="10" fill="#94a3b8">가격 제시 방식 UX 실험 결과 보고서</text>
<text x="840" y="440" font-size="10" fill="#94a3b8" text-anchor="end">05_final_model_round3.ipynb · 블록별 |SHAP| 합계</text>
</svg>