<svg xmlns="http://www.w3.org/2000/svg" viewBox="0 0 920 820" width="920" height="820" font-family="'Noto Sans KR','Malgun Gothic','AppleGothic',sans-serif">
<defs>
<clipPath id="clip-c1"><rect x="0" y="0" width="920" height="820" rx="14"/></clipPath>
</defs>

<text x="40" y="46" font-size="11.5" font-weight="700" fill="#1d4ed8" letter-spacing="1.6">6.3 종합 결론</text>
<text x="40" y="72" font-size="18" font-weight="800" fill="#14335c">01_eda → 05_final_model — 다섯 단계 파이프라인 전체 여정</text>
<text x="40" y="98" font-size="11.5" fill="#64748b">148.2만 행 진단에서 test RMSLE 0.4412 확정까지, 앞 단계의 결론이 다음 단계의 전제가 되는 하나의 인과 사슬.</text>
<rect x="40" y="120" width="205" height="78" rx="4" fill="#f8fafc"/>
<rect x="40" y="120" width="4" height="78" fill="#14335c"/>
<text x="58" y="158" font-size="26" font-weight="800" fill="#14335c">1,481,612</text>
<text x="58" y="176" font-size="10.5" fill="#64748b">정제 후 행 수</text>
<rect x="260" y="120" width="205" height="78" rx="4" fill="#f8fafc"/>
<rect x="260" y="120" width="4" height="78" fill="#1d4ed8"/>
<text x="278" y="158" font-size="26" font-weight="800" fill="#1d4ed8">155,526</text>
<text x="278" y="176" font-size="10.5" fill="#64748b">최종 입력 차원</text>
<rect x="480" y="120" width="195" height="78" rx="4" fill="#f8fafc"/>
<rect x="480" y="120" width="4" height="78" fill="#0f766e"/>
<text x="498" y="158" font-size="26" font-weight="800" fill="#0f766e">0.4412</text>
<text x="498" y="176" font-size="10.5" fill="#64748b">최종 test RMSLE</text>
<rect x="690" y="120" width="190" height="78" rx="4" fill="#f8fafc"/>
<rect x="690" y="120" width="4" height="78" fill="#0f766e"/>
<text x="708" y="158" font-size="26" font-weight="800" fill="#0f766e">-3.5%</text>
<text x="708" y="176" font-size="10.5" fill="#64748b">목표(0.4570) 대비</text>
<text x="40" y="228" font-size="12" font-weight="700" fill="#14335c">1. 다섯 단계 파이프라인</text>
<rect x="40" y="244" width="152" height="108" rx="10" fill="#f8fafc" stroke="#dbe2ec" stroke-width="1.2"/>
<circle cx="62" cy="244" r="14" fill="#14335c"/>
<text x="62" y="249" font-size="12" font-weight="800" fill="#ffffff" text-anchor="middle">1</text>
<text x="116.0" y="278" font-size="12.5" font-weight="700" fill="#14335c" text-anchor="middle">진단</text>
<text x="116.0" y="300" font-size="11.5" font-weight="700" fill="#14335c" text-anchor="middle">왜도 11.39</text>
<text x="116.0" y="317" font-size="9.6" fill="#64748b" text-anchor="middle"></text>
<text x="116.0" y="342" font-size="9" font-weight="700" fill="#94a3b8" text-anchor="middle" font-family="'Menlo','Consolas',monospace"></text>
<line x1="194" y1="284" x2="194" y2="284" stroke="#93b8f0" stroke-width="2.2"/><path d="M 192,279 L 202,284 L 192,289 Z" fill="#93b8f0"/>
<rect x="204" y="244" width="152" height="108" rx="10" fill="#f8fafc" stroke="#dbe2ec" stroke-width="1.2"/>
<circle cx="226" cy="244" r="14" fill="#14335c"/>
<text x="226" y="249" font-size="12" font-weight="800" fill="#ffffff" text-anchor="middle">2</text>
<text x="280.0" y="278" font-size="12.5" font-weight="700" fill="#14335c" text-anchor="middle">전처리</text>
<text x="280.0" y="300" font-size="11.5" font-weight="700" fill="#14335c" text-anchor="middle">155,526열</text>
<text x="280.0" y="317" font-size="9.6" fill="#64748b" text-anchor="middle"></text>
<text x="280.0" y="342" font-size="9" font-weight="700" fill="#94a3b8" text-anchor="middle" font-family="'Menlo','Consolas',monospace"></text>
<line x1="358" y1="284" x2="358" y2="284" stroke="#93b8f0" stroke-width="2.2"/><path d="M 356,279 L 366,284 L 356,289 Z" fill="#93b8f0"/>
<rect x="368" y="244" width="152" height="108" rx="10" fill="#f8fafc" stroke="#dbe2ec" stroke-width="1.2"/>
<circle cx="390" cy="244" r="14" fill="#14335c"/>
<text x="390" y="249" font-size="12" font-weight="800" fill="#ffffff" text-anchor="middle">3</text>
<text x="444.0" y="278" font-size="12.5" font-weight="700" fill="#14335c" text-anchor="middle">모델 4종</text>
<text x="444.0" y="300" font-size="11.5" font-weight="700" fill="#14335c" text-anchor="middle">Ridge 0.4489</text>
<text x="444.0" y="317" font-size="9.6" fill="#64748b" text-anchor="middle"></text>
<text x="444.0" y="342" font-size="9" font-weight="700" fill="#94a3b8" text-anchor="middle" font-family="'Menlo','Consolas',monospace"></text>
<line x1="522" y1="284" x2="522" y2="284" stroke="#93b8f0" stroke-width="2.2"/><path d="M 520,279 L 530,284 L 520,289 Z" fill="#93b8f0"/>
<rect x="532" y="244" width="152" height="108" rx="10" fill="#f8fafc" stroke="#dbe2ec" stroke-width="1.2"/>
<circle cx="554" cy="244" r="14" fill="#14335c"/>
<text x="554" y="249" font-size="12" font-weight="800" fill="#ffffff" text-anchor="middle">4</text>
<text x="608.0" y="278" font-size="12.5" font-weight="700" fill="#14335c" text-anchor="middle">HPO 3라운드</text>
<text x="608.0" y="300" font-size="11.5" font-weight="700" fill="#14335c" text-anchor="middle">alpha 3.3060</text>
<text x="608.0" y="317" font-size="9.6" fill="#64748b" text-anchor="middle"></text>
<text x="608.0" y="342" font-size="9" font-weight="700" fill="#94a3b8" text-anchor="middle" font-family="'Menlo','Consolas',monospace"></text>
<line x1="686" y1="284" x2="686" y2="284" stroke="#93b8f0" stroke-width="2.2"/><path d="M 684,279 L 694,284 L 684,289 Z" fill="#93b8f0"/>
<rect x="696" y="244" width="152" height="108" rx="10" fill="#eef3fb" stroke="#dbe2ec" stroke-width="1.2"/>
<circle cx="718" cy="244" r="14" fill="#0f766e"/>
<text x="718" y="249" font-size="12" font-weight="800" fill="#ffffff" text-anchor="middle">5</text>
<text x="772.0" y="278" font-size="12.5" font-weight="700" fill="#14335c" text-anchor="middle">최종·해석</text>
<text x="772.0" y="300" font-size="11.5" font-weight="700" fill="#0f766e" text-anchor="middle">test 0.4412</text>
<text x="772.0" y="317" font-size="9.6" fill="#64748b" text-anchor="middle"></text>
<text x="772.0" y="342" font-size="9" font-weight="700" fill="#94a3b8" text-anchor="middle" font-family="'Menlo','Consolas',monospace"></text>
<text x="40" y="394" font-size="12" font-weight="700" fill="#14335c">2. HPO alpha 수렴(3라운드)</text>
<line x1="40" y1="540" x2="410" y2="540" stroke="#dbe2ec" stroke-width="1.2"/>
<line x1="40" y1="410" x2="40" y2="540" stroke="#dbe2ec" stroke-width="1.2"/>
<path d="M 40.0,518.5 L 225.0,479.0 L 410.0,429.1" fill="none" stroke="#14335c" stroke-width="2.3"/>
<circle cx="40.0" cy="518.5" r="3.4" fill="#14335c"/>
<circle cx="225.0" cy="479.0" r="3.4" fill="#14335c"/>
<circle cx="410.0" cy="429.1" r="3.4" fill="#14335c"/>
<rect x="36" y="546" width="378" height="20" fill="#ffffff"/>
<text x="40.0" y="562" font-size="9" fill="#64748b" text-anchor="middle">1차</text>
<text x="225.0" y="562" font-size="9" fill="#64748b" text-anchor="middle">2차</text>
<text x="410.0" y="562" font-size="9" fill="#64748b" text-anchor="middle">3차</text>
<text x="40.0" y="508.5" font-size="10.5" font-weight="800" fill="#14335c" text-anchor="middle">1.9307</text>
<text x="225.0" y="469.0" font-size="10.5" font-weight="800" fill="#14335c" text-anchor="middle">2.5378</text>
<text x="410.0" y="419.1" font-size="10.5" font-weight="800" fill="#14335c" text-anchor="middle">3.306</text>
<text x="460" y="394" font-size="12" font-weight="700" fill="#14335c">3. SHAP 블록 기여도(9개 블록)</text>
<rect x="460" y="410" width="380" height="40" rx="4" fill="#f8fafc"/>
<rect x="460.0" y="410" width="156.7" height="40" fill="#14335c"/>
<rect x="616.7" y="410" width="100.5" height="40" fill="#1d4ed8"/>
<rect x="717.1" y="410" width="26.4" height="40" fill="#3b6fe0"/>
<rect x="743.6" y="410" width="24.5" height="40" fill="#0f766e"/>
<rect x="768.1" y="410" width="24.3" height="40" fill="#5eb8ad"/>
<rect x="792.4" y="410" width="22.3" height="40" fill="#93b8f0"/>
<rect x="814.7" y="410" width="13.5" height="40" fill="#c3d8f7"/>
<rect x="828.1" y="410" width="10.7" height="40" fill="#64748b"/>
<rect x="838.8" y="410" width="1.2" height="40" fill="#94a3b8"/>
<rect x="460" y="457" width="12" height="12" rx="2" fill="#14335c"/>
<text x="478" y="468" font-size="10" fill="#1a1a1a">상세설명 41.2%</text>
<rect x="460" y="481" width="12" height="12" rx="2" fill="#1d4ed8"/>
<text x="478" y="492" font-size="10" fill="#1a1a1a">상품명 26.4%</text>
<rect x="460" y="505" width="12" height="12" rx="2" fill="#3b6fe0"/>
<text x="478" y="516" font-size="10" fill="#1a1a1a">소분류 7.0%</text>
<rect x="460" y="529" width="12" height="12" rx="2" fill="#0f766e"/>
<text x="478" y="540" font-size="10" fill="#1a1a1a">브랜드 6.5%</text>
<rect x="650" y="457" width="12" height="12" rx="2" fill="#5eb8ad"/>
<text x="668" y="468" font-size="10" fill="#1a1a1a">상태 6.4%</text>
<rect x="650" y="481" width="12" height="12" rx="2" fill="#93b8f0"/>
<text x="668" y="492" font-size="10" fill="#1a1a1a">중분류 5.9%</text>
<rect x="650" y="505" width="12" height="12" rx="2" fill="#c3d8f7"/>
<text x="668" y="516" font-size="10" fill="#1a1a1a">대분류 3.5%</text>
<rect x="650" y="529" width="12" height="12" rx="2" fill="#64748b"/>
<text x="668" y="540" font-size="10" fill="#1a1a1a">배송비 2.8%</text>
<text x="40" y="584" font-size="12" font-weight="700" fill="#14335c">4. 최종 오차 통계(test 148,162건)</text>
<rect x="40" y="598" width="195" height="78" rx="4" fill="#f8fafc"/>
<rect x="40" y="598" width="4" height="78" fill="#14335c"/>
<text x="58" y="636" font-size="20" font-weight="800" fill="#14335c">0건</text>
<text x="58" y="654" font-size="10.5" fill="#64748b">음수 예측</text>
<rect x="250" y="598" width="195" height="78" rx="4" fill="#f8fafc"/>
<rect x="250" y="598" width="4" height="78" fill="#14335c"/>
<text x="268" y="636" font-size="20" font-weight="800" fill="#14335c">$4.62</text>
<text x="268" y="654" font-size="10.5" fill="#64748b">중앙값 절대오차</text>
<rect x="460" y="598" width="195" height="78" rx="4" fill="#f8fafc"/>
<rect x="460" y="598" width="4" height="78" fill="#14335c"/>
<text x="478" y="636" font-size="20" font-weight="800" fill="#14335c">$9.94</text>
<text x="478" y="654" font-size="10.5" fill="#64748b">평균 절대오차</text>
<rect x="670" y="598" width="195" height="78" rx="4" fill="#f8fafc"/>
<rect x="670" y="598" width="4" height="78" fill="#14335c"/>
<text x="688" y="636" font-size="20" font-weight="800" fill="#14335c">0.509</text>
<text x="688" y="654" font-size="10.5" fill="#64748b">R²(가격 스케일)</text>
<rect x="40" y="710" width="840" height="60" rx="8" fill="#eef3fb"/>
<text x="60" y="734" font-size="11" fill="#1a1a1a">EDA의 가격 왜도(11.39)→log1p·RMSLE 채택, 브랜드 결측 MNAR→별도 범주 보존이 155,526차원 초희소 구조를 만들었고,</text>
<text x="60" y="754" font-size="11" fill="#1a1a1a">이 구조가 Ridge 승리(14.7~15.8%↓)와 SHAP 텍스트 블록 우세(67.7%)로 이어지는 하나의 인과 사슬이다.</text>
<line x1="40" y1="786" x2="880" y2="786" stroke="#dbe2ec" stroke-width="1"/>
<text x="40" y="800" font-size="10" fill="#94a3b8">가격 제시 방식 UX 실험 결과 보고서</text>
<text x="880" y="800" font-size="10" fill="#94a3b8" text-anchor="end">01_eda ~ 05_final_model_round3 종합</text>
</svg>